<svg xmlns="http://www.w3.org/2000/svg" version="1.1" xmlns:xlink="http://www.w3.org/1999/xlink" xmlns:svgjs="http://svgjs.com/svgjs" width="512" height="512"><svg version="1.1" id="SvgjsSvg1000" xmlns="http://www.w3.org/2000/svg" xmlns:xlink="http://www.w3.org/1999/xlink" viewBox="0 0 512 512" xml:space="preserve">
<path style="fill:#3D6DEB;" d="M349.056,139.637h139.672c12.853,0,23.273-10.42,23.273-23.273V23.273
	c0-12.853-10.42-23.273-23.273-23.273H349.056c-12.853,0-23.273,10.42-23.273,23.273v23.273h-69.784
	c-12.853,0-23.273,10.42-23.273,23.273v162.909h-46.545v-31.032c0-12.853-10.42-23.273-23.273-23.273H23.273
	C10.42,178.423,0,188.843,0,201.696v108.606c0,12.853,10.42,23.273,23.273,23.273h139.636c12.853,0,23.273-10.42,23.273-23.273
	v-31.029h46.545v162.909c0,12.853,10.42,23.273,23.273,23.273h69.784v23.273c0,12.853,10.42,23.273,23.273,23.273h139.672
	c12.853,0,23.273-10.42,23.273-23.273v-93.091c0-12.853-10.42-23.273-23.273-23.273H349.056c-12.853,0-23.273,10.42-23.273,23.273
	v23.273h-46.511V279.273h46.511v23.273c0,12.853,10.42,23.273,23.273,23.273h139.672c12.853,0,23.273-10.42,23.273-23.273v-93.091
	c0-12.853-10.42-23.273-23.273-23.273H349.056c-12.853,0-23.273,10.42-23.273,23.273v23.273h-46.511V93.091h46.511v23.273
	C325.783,129.218,336.201,139.637,349.056,139.637z"></path>
<g>
	<polygon style="fill:#5286FA;" points="465.455,418.909 372.328,418.909 372.328,442.181 372.328,465.454 465.455,465.454 	"></polygon>
	<polygon style="fill:#5286FA;" points="465.455,232.727 372.328,232.727 372.328,256 372.328,279.273 465.455,279.273 	"></polygon>
	<polygon style="fill:#5286FA;" points="46.545,287.029 139.636,287.029 139.636,256 139.636,224.968 46.545,224.968 	"></polygon>
</g>
<path style="fill:#424EDE;" d="M349.056,139.637h139.672c12.853,0,23.273-10.42,23.273-23.273V23.273
	c0-12.853-10.42-23.273-23.273-23.273H349.056c-12.853,0-23.273,10.42-23.273,23.273v23.273h-69.784
	c-12.853,0-23.273,10.42-23.273,23.273v162.909h-46.545v-31.032c0-12.853-10.42-23.273-23.273-23.273H23.273
	C10.42,178.423,0,188.843,0,201.696v54.303h46.545h93.091h232.692h93.126H512v-46.544c0-12.853-10.42-23.273-23.273-23.273H349.056
	c-12.853,0-23.273,10.42-23.273,23.273v23.273h-46.511V93.091h46.511v23.273C325.783,129.218,336.201,139.637,349.056,139.637z"></path>
<g>
	<polygon style="fill:#6E76E5;" points="465.455,46.546 372.328,46.546 372.328,69.819 372.328,93.091 465.455,93.091 	"></polygon>
	<rect x="372.331" y="232.727" style="fill:#6E76E5;" width="93.122" height="23.271"></rect>
	<rect x="46.545" y="224.97" style="fill:#6E76E5;" width="93.091" height="31.03"></rect>
</g>
</svg><style>@media (prefers-color-scheme: light) { :root { filter: none; } }
</style></svg>